# xmcd CD database file
# Copyright (C) 1993-1996 Ti Kan
#
# Track frame offsets:
# 150
# 14602
# 30340
# 46975
# 60910
# 77087
# 93595
# 113447
# 129167
# 143215
#
# Disc length: 2102 seconds
#
# Revision: 0
# Processed by: cddbd v1.4b41PL1 Copyright (c) Steve Scherf et al.
# Submitted via: inCDius 1.1b5
#
DISCID=7108340a
DTITLE=Moe Bandy - Moe bAndy Greatest Hits
DYEAR=1900
DGENRE=
TTITLE0=Till I'm Too Old To Die Young
TTITLE1=Back In My Roarin' 20's
TTITLE2=You Haven't Heard The Last Of Me
TTITLE3=One Man Band
TTITLE4=Many Mansions
TTITLE5=Pardon Me (Haven't We Loved Somewhere Before)
TTITLE6=Americana
TTITLE7=She Has No Memory Of Me
TTITLE8=Brotherly Love
TTITLE9=I Just Can't Say No To You
EXTD=
EXTT0=
EXTT1=
EXTT2=
EXTT3=
EXTT4=
EXTT5=With Becky Hobbs
EXTT6=
EXTT7=
EXTT8=
EXTT9=
PLAYORDER=
